<svg width="59" height="112" viewBox="0 0 59 112" fill="none" xmlns="http://www.w3.org/2000/svg">
<path d="M29.5039 40.197C26.993 36.868 25.6775 33.5291 24.7161 30.1875C23.8219 26.9136 23.3484 23.5405 23.3072 20.1496C23.2548 16.7588 23.6427 13.377 24.4611 10.0889C25.3392 6.73164 26.5848 3.3716 29.0309 0C31.5536 3.32735 32.8775 6.66794 33.8356 10.0096C34.7316 13.2827 35.1996 16.6568 35.2276 20.0474C35.2674 23.439 34.8745 26.8204 34.0585 30.1098C33.1754 33.4654 31.9348 36.8271 29.5039 40.197Z" fill="#8BC34A"/>
<path d="M44.4177 8.76607C44.9712 12.9222 44.4775 16.4991 43.6703 19.9006C42.8349 23.2104 41.5828 26.3975 39.9439 29.3859C38.3158 32.3792 36.3064 35.1464 33.9654 37.6191C31.5365 40.1228 28.7839 42.4475 24.9807 44.1862C24.4119 40.0215 24.9022 36.4446 25.7145 33.0449C26.5474 29.7346 27.805 26.5494 29.4561 23.568C31.0961 20.5811 33.1101 17.8175 35.4499 15.3433C37.8771 12.838 40.6229 10.5133 44.4177 8.76607Z" fill="#7CB342"/>
<path d="M34.1533 44.0598C30.2873 42.3641 27.4735 40.0549 24.9761 37.5609C22.5199 35.0426 20.4798 32.2836 18.7922 29.3208C17.0784 26.3242 15.7601 23.1116 14.8692 19.7612C13.9965 16.3243 13.4506 12.6922 13.9654 8.44482C17.8434 10.1319 20.6624 12.4393 23.1564 14.9333C25.5614 17.4009 27.6343 20.1729 29.3248 23.1822C31.0282 26.1852 32.341 29.3999 33.2323 32.7504C34.1032 36.1925 34.6561 39.8211 34.1533 44.0598Z" fill="#7CB342"/>
<path d="M54.4663 18.8148C53.5611 22.9256 51.8658 26.1445 49.9346 29.097C47.9715 32.0141 45.6983 34.5805 43.159 36.8502C40.592 39.1502 37.7424 41.1128 34.6801 42.6897C31.5259 44.2698 28.1307 45.5717 23.9353 45.9783C24.8304 41.8574 26.5207 38.6334 28.4569 35.686C30.4201 32.7689 32.6949 30.2008 35.2444 27.9446C37.7938 25.685 40.6078 23.7273 43.7334 22.1151C46.8893 20.5401 50.2845 19.2315 54.4663 18.8148Z" fill="#558B2F"/>
<path d="M5.28587 17.1244C9.24257 17.8782 12.3075 19.4192 15.1045 21.1946C17.866 23.0021 20.277 25.1197 22.3879 27.5037C24.5315 29.9146 26.3365 32.6065 27.7529 35.5052C29.171 38.5011 30.3126 41.7364 30.5558 45.7658C26.5873 45.0237 23.519 43.486 20.7237 41.7056C17.9638 39.8965 15.5512 37.7805 13.4538 35.3864C11.353 32.9957 9.55232 30.3387 8.10221 27.3748C6.68583 24.3772 5.54083 21.1452 5.28587 17.1244Z" fill="#558B2F"/>
<path d="M58.3715 68.7422C58.4072 60.5654 54.8313 52.4078 48.9292 46.3817C45.8663 43.2533 37.1829 39.1309 31.8344 39.0462L26.3329 39.0703C26.3329 39.0703 17.6963 38.7633 10.233 46.2266C4.08561 52.374 0.19766 60.6739 0.164723 68.9983L0.108744 81.4196C0.0368194 97.883 13.0086 111.175 29.0827 111.107C45.1569 111.035 58.2453 97.6287 58.3173 81.1653L58.3715 68.7422Z" fill="#F9A825"/>
<path d="M56.1301 92.0296L56.1369 92.0228C57.0446 89.5753 57.6279 87.0191 57.8718 84.4193C56.2207 85.5228 54.6541 86.7476 53.1849 88.0837C51.1109 86.2077 47.5289 83.3192 44.0386 82.1173C46.8515 79.5301 50.9015 76.6087 53.1778 76.6136C54.4201 76.6126 56.1979 77.499 58.0118 78.7151L58.0083 73.0245C57.3954 72.7165 56.7634 72.4483 56.116 72.2218C56.7018 71.6873 57.344 71.1375 58.0068 70.6047L58.0059 69.1863C58.0032 67.7047 57.8793 66.2281 57.6459 64.7583C56.0749 65.8261 54.5807 67.0026 53.1743 68.2793C51.0985 66.405 47.5165 63.5165 44.0262 62.3146C46.8426 59.7274 50.8874 56.8077 53.1637 56.8092C53.8353 56.8113 54.666 57.0852 55.5634 57.5079C52.9091 51.2204 48.428 45.873 42.7012 42.1591C37.1112 39.1138 28.9873 39.4642 28.9873 39.4642C30.7748 39.4653 33.664 41.2853 36.1893 43.3222C33.3654 44.7371 30.6753 46.9314 28.9895 48.4598C27.3019 46.9293 24.609 44.7282 21.7833 43.3132C24.3078 41.2812 27.193 39.463 28.9839 39.4642C28.9839 39.4642 21.2984 38.3913 15.4904 42.0925C9.71271 45.7938 5.17866 51.1426 2.47312 57.4491C3.35294 57.0412 4.16621 56.782 4.82243 56.779C7.09868 56.7804 11.1523 59.7068 13.9702 62.2959C10.4848 63.4933 6.90302 66.3774 4.83301 68.2491C3.42481 66.9731 1.92975 65.7965 0.358636 64.7277C0.123725 66.1937 -0.00180952 67.6736 0.000823352 69.1518L0 70.5684C0.665095 71.1037 1.30627 71.6527 1.89105 72.1897C1.24385 72.4129 0.612565 72.6797 0.00151481 72.9882L0.00506961 78.6789C1.81916 77.4633 3.59415 76.5809 4.83822 76.5816C7.11277 76.5848 11.1647 79.5095 13.9826 82.0985C10.4937 83.296 6.9154 86.1801 4.84368 88.0535C3.37294 86.7152 1.80415 85.489 0.150475 84.3849C0.399926 87.0424 1.00988 89.5822 1.89659 91.9889L1.90172 91.994C2.47487 93.5592 3.17896 95.0734 4.00649 96.5205C4.29867 96.4506 4.59427 96.3842 4.84718 96.3843C7.12343 96.3857 11.1736 99.3122 13.9915 101.901C12.6384 102.369 11.2768 103.097 9.98883 103.914C11.3242 105.105 12.7672 106.173 14.3024 107.1C15.2949 106.61 16.2107 106.296 16.937 106.295C18.9637 106.296 22.3881 108.61 25.1067 110.95C26.3902 111.127 27.6941 111.252 29.0237 111.253C30.3549 111.252 31.657 111.127 32.9403 110.955C35.656 108.619 39.0791 106.31 41.1042 106.31C41.8322 106.31 42.7466 106.627 43.7415 107.117C45.2755 106.191 46.7154 105.128 48.0494 103.937C46.7603 103.12 45.3979 102.389 44.0442 101.92C46.8571 99.3328 50.9053 96.4131 53.1816 96.4145C53.4345 96.4147 53.7302 96.4815 54.0224 96.5518C54.8418 95.1168 55.5466 93.6049 56.125 92.0279L56.1301 92.0296ZM50.2391 72.2267C46.752 73.4225 43.1669 76.2997 41.0934 78.1714C39.0177 76.2971 35.4289 73.4154 31.9386 72.217C34.7532 69.6246 38.8083 66.6981 41.0863 66.7012C43.3642 66.701 47.4212 69.6308 50.2391 72.2267ZM38.1634 82.1205C34.6729 83.3162 31.0894 86.1918 29.016 88.0669C26.9402 86.1892 23.3532 83.3092 19.8612 82.1091C22.6758 79.5201 26.7309 76.5936 29.0088 76.5967C31.2868 76.5965 35.3421 79.528 38.1634 82.1205ZM41.0756 46.8934C43.3501 46.8966 47.402 49.8213 50.2199 52.4103C46.7311 53.6078 43.1545 56.4936 41.0828 58.3635C39.0104 56.4893 35.4268 53.6025 31.9381 52.3989C34.7528 49.8134 38.7993 46.892 41.0756 46.8934ZM38.1493 62.3161C34.6605 63.5101 31.0771 66.3857 29.0036 68.2573C26.9279 66.3831 23.3408 63.5065 19.8505 62.3047C22.6651 59.7123 26.7202 56.7892 28.9965 56.7906C31.2727 56.7921 35.3298 59.7219 38.1493 62.3161ZM7.7607 52.3941C10.5736 49.8034 14.6287 46.8803 16.905 46.8783L16.9118 46.8783C19.1881 46.8832 23.2451 49.8131 26.063 52.4055C22.5742 53.5995 18.9924 56.4768 16.9156 58.3484C14.8398 56.4742 11.251 53.5959 7.7607 52.3941ZM7.78332 72.1933C10.5963 69.6027 14.6462 66.6813 16.9208 66.6844C19.197 66.6859 23.2472 69.6123 26.0651 72.2013C22.578 73.3971 18.9997 76.2846 16.9279 78.1545C14.8539 76.282 11.2702 73.3917 7.78332 72.1933ZM7.7957 91.996C10.6086 89.4054 14.6586 86.4874 16.9348 86.4888C19.2094 86.492 23.2596 89.415 26.0792 92.0092C22.5904 93.2032 19.0103 96.089 16.942 97.9589C14.868 96.0864 11.2826 93.1978 7.7957 91.996ZM29.0301 107.871C26.9526 105.995 23.3673 103.117 19.8752 101.917C22.6916 99.3262 26.745 96.4014 29.0229 96.4011C31.3009 96.4043 35.3579 99.3342 38.1792 101.93C34.6853 103.122 31.1035 105.996 29.0301 107.871ZM41.1058 97.974C39.03 96.0998 35.4447 93.2181 31.9527 92.0214C34.7673 89.429 38.8224 86.5025 41.0986 86.5039C43.38 86.5071 47.4336 89.4369 50.2549 92.0328C46.7627 93.2269 43.1826 96.1024 41.1058 97.974Z" fill="#C68632"/>
</svg>
