<svg width="234" height="368" viewBox="0 0 234 368" fill="none" xmlns="http://www.w3.org/2000/svg">
<path d="M79.5584 0H194.152V53.9444H79.5584V0Z" fill="#FF3333"/>
<path d="M78.7834 157.028H193.377V210.972H78.7834V157.028Z" fill="#FF3333"/>
<path d="M79.5584 235.542H194.152V289.486H79.5584V235.542Z" fill="#FF3333"/>
<path d="M79.5584 314.056H194.152V368H79.5584V314.056Z" fill="#FF3333"/>
<path d="M0 78.9186H193.377V132.863H0V78.9186Z" fill="#FF3333"/>
<path d="M194.608 25.1935H219.676V31.1873H194.608V25.1935Z" fill="#FF3333"/>
<path d="M194.608 17.2017H234V23.1956H194.608V17.2017Z" fill="#FF3333"/>
<path d="M208.933 31.1873H219.676V54.1636H208.933V31.1873Z" fill="#FF3333"/>
<path d="M208.933 68.1492H219.676V132.083H208.933V68.1492Z" fill="#FF3333"/>
<path d="M208.933 147.068H219.676V211.002H208.933V147.068Z" fill="#FF3333"/>
<path d="M208.933 225.986H219.676V289.92H208.933V225.986Z" fill="#FF3333"/>
<path d="M208.933 303.906H219.676V367.84H208.933V303.906Z" fill="#FF3333"/>
<path d="M223.257 23.1956H234V54.1636H223.257V23.1956Z" fill="#FF3333"/>
<path d="M78.2238 186.028H53.1564L53.1564 180.034H78.2238V186.028Z" fill="#FF3333"/>
<path d="M78.2238 194.019H38.8321V188.026H78.2238V194.019Z" fill="#FF3333"/>
<path d="M63.8996 180.034H53.1564V147.068H63.8996L63.8996 180.034Z" fill="#FF3333"/>
<path d="M49.5753 188.026H38.8321V147.068H49.5753L49.5753 188.026Z" fill="#FF3333"/>
<path d="M223.257 68.1492H234V132.083H223.257V68.1492Z" fill="#FF3333"/>
<path d="M223.257 147.068H234V211.002H223.257V147.068Z" fill="#FF3333"/>
<path d="M223.257 225.986H234V289.92H223.257V225.986Z" fill="#FF3333"/>
<path d="M223.257 303.906H234V367.84H223.257V303.906Z" fill="#FF3333"/>
</svg>
